# Blender v3.1.0 Alpha OBJ File: ''
# www.blender.org
mtllib LightScene.mtl
o Cube_Cube.001
v -10.000000 0.000000 10.000000
v -10.000000 20.000000 10.000000
v -10.000000 0.000000 -10.000000
v -10.000000 20.000000 -10.000000
v 10.000000 0.000000 10.000000
v 10.000000 20.000000 10.000000
v 10.000000 0.000000 -10.000000
v 10.000000 20.000000 -10.000000
vt 1.000000 0.000000
vt 0.000000 1.000000
vt 0.000000 0.000000
vt 1.000000 0.000000
vt 0.000000 1.000000
vt 0.000000 0.000000
vt 0.000000 0.000000
vt 1.000000 1.000000
vt 1.000000 1.000000
vt 1.000000 0.000000
vt 1.000000 1.000000
vt 0.000000 1.000000
vt 1.000000 0.000000
vt 1.000000 1.000000
vt 0.000000 1.000000
vt 0.000000 0.000000
vn 1.0000 0.0000 0.0000
vn 0.0000 0.0000 1.0000
vn -1.0000 0.0000 0.0000
vn 0.0000 0.0000 -1.0000
vn 0.0000 1.0000 0.0000
vn 0.0000 -1.0000 0.0000
usemtl Material.001
s off
f 3/1/1 2/2/1 1/3/1
f 7/4/2 4/5/2 3/6/2
f 5/7/3 8/8/3 7/4/3
f 1/3/4 6/9/4 5/10/4
f 1/3/5 7/11/5 3/12/5
f 6/13/6 4/5/6 8/8/6
f 3/1/1 4/14/1 2/2/1
f 7/4/2 8/8/2 4/5/2
f 5/7/3 6/15/3 8/8/3
f 1/3/4 2/2/4 6/9/4
f 1/3/5 5/10/5 7/11/5
f 6/13/6 2/16/6 4/5/6
